# xmcd
#
# Track frame offsets:
#	150
#	14177
#	32255
#	47960
#	61207
#	76630
#	92152
#	110152
#	127685
#	142940
#	156342
#	176837
#	188672
#	211060
#	225727
#	241537
#	255040
#	268947
#	271330
#	273712
#	276095
#	278505
#	280887
#	283270
#	285652
#	288035
#	290612
#	292995
#	295440
#	297822
#	300165
#	302547
#	304930
#	307312
#	309695
#	312077
#	314535
#	316917
#	318830
#	320920
#	322810
#	324337
#	326157
#	329045
#	329930
#	330802
#
# Disc length: 4426 seconds
#
# Revision: 2
# Processed by: cddbd v1.5.2PL0 Copyright (c) Steve Scherf et al.
# Submitted via: audiograbber 1.83.01
#
DISCID=bc11482e
DTITLE=Abi Wallenstein and Lars-Luis Linek - Blues, Shuffle, Cajun
DYEAR=1995
DGENRE=Blues
TTITLE0=I Go To Church On Sundays
TTITLE1=Flow Little River
TTITLE2=Pretty Baby
TTITLE3=Blues And Boogie
TTITLE4=It Was Raining
TTITLE5=You Must Go On
TTITLE6=Hear That Train
TTITLE7=Blues And Boogie Man
TTITLE8=Feel So Bad
TTITLE9=Don't You Touch My Baby 
TTITLE10=Pretty Baby (Blues-Duo version)
TTITLE11=Blues And Boogie (Blues-Duo version) 
TTITLE12=It Was Raining (Blues-Duo version)
TTITLE13=Hear That Train (Blues-Duo version)
TTITLE14=Blues And Boogie Man (Blues-Duo version)
TTITLE15=Feel So Bad (Blues-Duo version)
TTITLE16=Don't You Touch My Baby (Blues-Duo version)
TTITLE17=I Go To Church On Sundays (short version I)
TTITLE18=I Go To Church On Sundays (short version II)
TTITLE19=I Go To Church On Sundays (short version III)
TTITLE20=Flow Little River (short version)
TTITLE21=Pretty Baby (short version I)
TTITLE22=Pretty Baby (short version II)
TTITLE23=Pretty Baby (short version III)
TTITLE24=Pretty Baby (short version IV)
TTITLE25=Blues And Booogie (short version)
TTITLE26=It Was Raining (short version I)
TTITLE27=It Was Raining (short version II)
TTITLE28=It Was Raining (short version III)
TTITLE29=You Must Go On (short version)
TTITLE30=Hear That Train (short version)
TTITLE31=Blues And Boogie Man (short version)
TTITLE32=Feel So Bad (short version I)
TTITLE33=Feel So Bad (short version II)
TTITLE34=Feel So Bad (short version III)
TTITLE35=Feel So Bad (short version IV)
TTITLE36=Don't You Touch My Baby (short version)
TTITLE37=Slide Guitar Lick No. 1
TTITLE38=Slide Guitar Lick No. 2
TTITLE39=Slide Guitar Lick No. 3
TTITLE40=Slide Guitar Lick No. 4
TTITLE41=Slide Guitar Lick No. 5
TTITLE42=Slide Guitar Lick No. 6
TTITLE43=Slide Guitar Lick No. 7
TTITLE44=Slide Guitar Lick No. 8
TTITLE45=Slide Guitar Lick No. 9
EXTD=
EXTT0=
EXTT1=
EXTT2=
EXTT3=
EXTT4=
EXTT5=
EXTT6=
EXTT7=
EXTT8=
EXTT9=
EXTT10=
EXTT11=
EXTT12=
EXTT13=
EXTT14=
EXTT15=
EXTT16=
EXTT17=
EXTT18=
EXTT19=
EXTT20=
EXTT21=
EXTT22=
EXTT23=
EXTT24=
EXTT25=
EXTT26=
EXTT27=
EXTT28=
EXTT29=
EXTT30=
EXTT31=
EXTT32=
EXTT33=
EXTT34=
EXTT35=
EXTT36=
EXTT37=
EXTT38=
EXTT39=
EXTT40=
EXTT41=
EXTT42=
EXTT43=
EXTT44=
EXTT45=
PLAYORDER=
